<svg id="LOGO_TALLER_SOLIS_MOTOR_SPORT" data-name="LOGO TALLER SOLIS MOTOR SPORT" xmlns="http://www.w3.org/2000/svg" xmlns:xlink="http://www.w3.org/1999/xlink" viewBox="0 0 538.57 428.53"><defs><style>.cls-1,.cls-10,.cls-5,.cls-8{fill:none;}.cls-1{stroke:#fff;stroke-width:12px;}.cls-1,.cls-10,.cls-2,.cls-3,.cls-4,.cls-5,.cls-6,.cls-7,.cls-8{stroke-miterlimit:10;}.cls-2,.cls-3,.cls-4,.cls-5,.cls-6,.cls-7,.cls-8{stroke:red;}.cls-2,.cls-3,.cls-4,.cls-5,.cls-6,.cls-7{stroke-width:4.5px;}.cls-2{fill:url(#Degradado_sin_nombre_4);}.cls-3{fill:url(#Degradado_sin_nombre_3);}.cls-4{fill:url(#Degradado_sin_nombre_3-2);}.cls-6{fill:url(#Degradado_sin_nombre_3-3);}.cls-7{fill:url(#Degradado_sin_nombre_3-4);}.cls-10,.cls-8{stroke-width:5px;}.cls-9{fill:#fff;}.cls-10{stroke:#000;}.cls-11{fill:red;}</style><linearGradient id="Degradado_sin_nombre_4" x1="343.72" y1="640.43" x2="343.72" y2="436.14" gradientUnits="userSpaceOnUse"><stop offset="0" stop-color="#fff"/><stop offset="1"/></linearGradient><linearGradient id="Degradado_sin_nombre_3" x1="557.77" y1="589.76" x2="557.77" y2="453.84" xlink:href="#Degradado_sin_nombre_4"/><linearGradient id="Degradado_sin_nombre_3-2" x1="460.63" y1="599.48" x2="460.63" y2="449.26" xlink:href="#Degradado_sin_nombre_4"/><linearGradient id="Degradado_sin_nombre_3-3" x1="654.47" y1="596.03" x2="654.47" y2="448.57" xlink:href="#Degradado_sin_nombre_4"/><linearGradient id="Degradado_sin_nombre_3-4" x1="754.12" y1="617.55" x2="754.12" y2="450.98" xlink:href="#Degradado_sin_nombre_4"/></defs><g id="MOTOR_BLANCO" data-name="MOTOR BLANCO"><path class="cls-1" d="M355.42,483.42h51.05a6.14,6.14,0,0,1,1.54.06,1.92,1.92,0,0,1,.86.35,1.53,1.53,0,0,1,.44.82,8.15,8.15,0,0,1,.05,2.15v12.95c0,.79.07,1.55.05,2.34a3.22,3.22,0,0,1-.08.82,2.73,2.73,0,0,1-.34.71,2.17,2.17,0,0,1-.62.69,1.89,1.89,0,0,1-.94.26c-.37,0-.74-.05-1.11-.05H402.2l.19,47.6h5a6.85,6.85,0,0,1,1.36,0,3.23,3.23,0,0,1,.68.24,2.16,2.16,0,0,1,1.1.89,2.46,2.46,0,0,1,.17,1.08v15.1a5.23,5.23,0,0,1,0,.68,3.19,3.19,0,0,1-1,1.77c-.1.11-.2.22-.31.32a6,6,0,0,1-2.57.91l-6,1.45L391,577l-10.86,2.62-9.18,2.21-3.11.75c-1.15.27-2.66.87-3.75.27a1.9,1.9,0,0,1-.41-.34c-.75-.88-.51-2.55-.52-3.64l-.14-11.2-.08-6.83,7.48-.12V529l-.3,1.17-.64,2.48-.91,3.57-1.13,4.43-1.29,5-1.38,5.45-1.43,5.6-1.42,5.53-1.33,5.23-1.2,4.69-1,3.93-.75,2.93c-.13.52-.29,1-.45,1.52a25.53,25.53,0,0,1-1.48,4.45,3.48,3.48,0,0,1-2,1.73l-1,.31-3.64,1.18-4.93,1.6-5.35,1.74-4.9,1.59-3.57,1.16-1.39.45a6.34,6.34,0,0,1-3.69-.38,2.21,2.21,0,0,1-.53-.27,3,3,0,0,1-.54-.58,14.41,14.41,0,0,1-1-1.65l-13.07-51.21v34.78h7.33v20.07a5.49,5.49,0,0,1-.76,3,2.85,2.85,0,0,1-.83.75,11.43,11.43,0,0,1-1.66.77l-1.21.47-3.51,1.37-4.55,1.78-5.14,2-5.26,2.06-4.9,1.92-4.08,1.6-2.79,1.09-1,.4a5.86,5.86,0,0,1-2.13.39,9.54,9.54,0,0,1-1.57-.33,2.59,2.59,0,0,1-.61-.21l-.15-.1c-.67-.5-.46-1.59-.46-2.34V588.06c0-.19.84-3.55,2.64-3.55h4l.13-73.21h-4.06a2,2,0,0,1-1-.14,3.2,3.2,0,0,1-.83-.51,1.45,1.45,0,0,1-.49-.87v-23a6.22,6.22,0,0,1,0-1.22,1.82,1.82,0,0,1,.27-.79,1.75,1.75,0,0,1,.9-.57,3.82,3.82,0,0,1,1.07-.12h50.32a2.49,2.49,0,0,1,1.51.5A2.39,2.39,0,0,1,332,486l11.16,43,10.14-43A2.94,2.94,0,0,1,355.42,483.42Z" transform="translate(-270.76 -325.55)"/><path class="cls-1" d="M557.73,483.29h42.52c1.32,0,3-.25,4,.61a3.42,3.42,0,0,1,1,1.08,5.59,5.59,0,0,1,.13,2.42V510c0,.61.07,1.18.12,1.77a1.59,1.59,0,0,1-.65,1.33,3.12,3.12,0,0,1-1.31.43,9.23,9.23,0,0,1-1.73.13H584.21a6.11,6.11,0,0,1-2.21-.23,2.22,2.22,0,0,1-.81-.41.78.78,0,0,1-.3-.72V500.89H574v39.17h8a3.22,3.22,0,0,1,1.36.42,3.38,3.38,0,0,1,.41.24c.85.63.75,1.83.75,2.78v13.15A2.52,2.52,0,0,1,584,558a1.94,1.94,0,0,1-.26.31,5.23,5.23,0,0,1-1.83.22H534.53a4.6,4.6,0,0,1-.83,0c-.42-.08-.86-.11-1.28-.22a2.17,2.17,0,0,1-1.06-.58,1.32,1.32,0,0,1-.41-1.09V542.07a2.16,2.16,0,0,1,0-.84,1.74,1.74,0,0,1,1.21-1.1,3.69,3.69,0,0,1,1.48-.06c.23,0,.48,0,.72,0h7V500.89h-6.86V511a2.34,2.34,0,0,1-1.28,2.26c-.95.61-2.54.36-3.64.36H512.48a2,2,0,0,1-1.54-.44,2,2,0,0,1-.87-1.38V486.72c0-.22,0-.44,0-.66a3.12,3.12,0,0,1,.75-1.93c.84-1,2.11-.84,3.27-.84h43.68Z" transform="translate(-270.76 -325.55)"/><path class="cls-1" d="M423,557.13c17.95,15.8,50.51,9.94,57.38,7.6,10.49-3.56,22.07-10.46,27-22.12a51.67,51.67,0,0,0,2.09-32.13c-4.38-13.87-15.24-20.54-19.78-23.33-17.89-11-37-7-44.62-4.81-5,1.49-14.81,4.51-23.07,13.69a46.62,46.62,0,0,0-10.39,20.28c-.94,4-3.24,14.56,1.52,26.37A38.5,38.5,0,0,0,423,557.13Z" transform="translate(-270.76 -325.55)"/><path class="cls-1" d="M451.63,507.44c4.53-4.06,12.78-4.16,17.37-.13,3.73,3.28,3.71,8.11,3.68,15.46,0,8.28-.08,15.31-5.33,18.77a13.45,13.45,0,0,1-15.08-.89c-4.11-3.38-4.14-8.62-4.19-17.11C448,515.28,448,510.67,451.63,507.44Z" transform="translate(-270.76 -325.55)"/><path class="cls-1" d="M616.82,557.25c18,15.81,50.51,9.94,57.38,7.61,10.49-3.57,22.08-10.46,27-22.12a51.54,51.54,0,0,0,2.09-32.14c-4.37-13.87-15.23-20.53-19.77-23.32-17.89-11-37-7.06-44.62-4.82-5,1.49-14.81,4.52-23.07,13.69a46.69,46.69,0,0,0-10.39,20.28c-.95,4-3.25,14.57,1.52,26.37A38.48,38.48,0,0,0,616.82,557.25Z" transform="translate(-270.76 -325.55)"/><path class="cls-1" d="M645.47,507.56c4.53-4.05,12.78-4.16,17.37-.13,3.73,3.28,3.71,8.11,3.67,15.47,0,8.28-.07,15.31-5.32,18.76a13.44,13.44,0,0,1-15.08-.89c-4.12-3.38-4.14-8.62-4.19-17.11C641.88,515.41,641.86,510.8,645.47,507.56Z" transform="translate(-270.76 -325.55)"/><path class="cls-1" d="M790.46,570.56s-1,21.81-1.34,3.17a42.81,42.81,0,0,0-12.6-29.53c5.83-3.05,16.48-21.43,11.16-40.44s-31.57-20.07-31.57-20.07H706.68c-2.12.17-1.74,2.62-1.74,2.62V503.8c0,2.49,7.48,1.86,7.48,1.86l.17,54.09h-4.48c-2.83,0-2.53,2.11-2.53,2.11v16.73a2.78,2.78,0,0,0,2,2.68l41,12.19s3.6,1.66,4.42-2.11v-19.6a2.37,2.37,0,0,0-1.86-2.62h-3.38c-3.38,0-2.71-2.2-2.71-2.2V550.7c5.92-.08,8.28,5.92,8.28,5.92v5.92c0,17.74,4.57,25.35,4.57,25.35,4.9,7.94,22.69,23.57,32.57,21.29s12.68-12.63,12.81-13.9,0-20.66,0-20.66a1.79,1.79,0,0,0-1.27-2l-8.24-1.9S790.91,569.61,790.46,570.56Z" transform="translate(-270.76 -325.55)"/><path class="cls-1" d="M758.75,518.47c.37,3.41-1.68,6.87-3.27,8.49-3.36,3.42-10.71,2.09-10.71,2.09V508.2s7.35-1.33,10.71,2.09C757.07,511.91,758.39,515.07,758.75,518.47Z" transform="translate(-270.76 -325.55)"/></g><g id="MOTOR_ROJO" data-name="MOTOR ROJO"><path class="cls-2" d="M355.42,483.42h51.05a6.14,6.14,0,0,1,1.54.06,1.92,1.92,0,0,1,.86.35,1.53,1.53,0,0,1,.44.82,8.15,8.15,0,0,1,.05,2.15v12.95c0,.79.07,1.55.05,2.34a3.22,3.22,0,0,1-.08.82,2.73,2.73,0,0,1-.34.71,2.17,2.17,0,0,1-.62.69,1.89,1.89,0,0,1-.94.26c-.37,0-.74-.05-1.11-.05H402.2l.19,47.6h5a6.85,6.85,0,0,1,1.36,0,3.23,3.23,0,0,1,.68.24,2.16,2.16,0,0,1,1.1.89,2.46,2.46,0,0,1,.17,1.08v15.1a5.23,5.23,0,0,1,0,.68,3.19,3.19,0,0,1-1,1.77c-.1.11-.2.22-.31.32a6,6,0,0,1-2.57.91l-6,1.45L391,577l-10.86,2.62-9.18,2.21-3.11.75c-1.15.27-2.66.87-3.75.27a1.9,1.9,0,0,1-.41-.34c-.75-.88-.51-2.55-.52-3.64l-.14-11.2-.08-6.83,7.48-.12V529l-.3,1.17-.64,2.48-.91,3.57-1.13,4.43-1.29,5-1.38,5.45-1.43,5.6-1.42,5.53-1.33,5.23-1.2,4.69-1,3.93-.75,2.93c-.13.52-.29,1-.45,1.52a25.53,25.53,0,0,1-1.48,4.45,3.48,3.48,0,0,1-2,1.73l-1,.31-3.64,1.18-4.93,1.6-5.35,1.74-4.9,1.59-3.57,1.16-1.39.45a6.34,6.34,0,0,1-3.69-.38,2.21,2.21,0,0,1-.53-.27,3,3,0,0,1-.54-.58,14.41,14.41,0,0,1-1-1.65l-13.07-51.21v34.78h7.33v20.07a5.49,5.49,0,0,1-.76,3,2.85,2.85,0,0,1-.83.75,11.43,11.43,0,0,1-1.66.77l-1.21.47-3.51,1.37-4.55,1.78-5.14,2-5.26,2.06-4.9,1.92-4.08,1.6-2.79,1.09-1,.4a5.86,5.86,0,0,1-2.13.39,9.54,9.54,0,0,1-1.57-.33,2.59,2.59,0,0,1-.61-.21l-.15-.1c-.67-.5-.46-1.59-.46-2.34V588.06c0-.19.84-3.55,2.64-3.55h4l.13-73.21h-4.06a2,2,0,0,1-1-.14,3.2,3.2,0,0,1-.83-.51,1.45,1.45,0,0,1-.49-.87v-23a6.22,6.22,0,0,1,0-1.22,1.82,1.82,0,0,1,.27-.79,1.75,1.75,0,0,1,.9-.57,3.82,3.82,0,0,1,1.07-.12h50.32a2.49,2.49,0,0,1,1.51.5A2.39,2.39,0,0,1,332,486l11.16,43,10.14-43A2.94,2.94,0,0,1,355.42,483.42Z" transform="translate(-270.76 -325.55)"/><path class="cls-3" d="M600.25,483.29c1.32,0,3-.25,4,.61a3.42,3.42,0,0,1,1,1.08,5.59,5.59,0,0,1,.13,2.42V510c0,.61.07,1.18.12,1.77a1.59,1.59,0,0,1-.65,1.33,3.12,3.12,0,0,1-1.31.43c-.6.11-22.13-.31-22.36-.51a.78.78,0,0,1-.3-.72V500.89H574v39.17h8a3.22,3.22,0,0,1,1.36.42,3.38,3.38,0,0,1,.41.24c.85.63.75,1.83.75,2.78v13.15A2.52,2.52,0,0,1,584,558a1.94,1.94,0,0,1-.26.31,5.23,5.23,0,0,1-1.83.22s-49.12-.13-49.68-.25a1.15,1.15,0,0,1-.45-.16.91.91,0,0,1-.21-.18,2,2,0,0,1-.51-.58,1.51,1.51,0,0,1-.14-.73V542.07a2.16,2.16,0,0,1,0-.84c.21-.72.84-.94,1.47-1.18a1.06,1.06,0,0,1,.31,0l1.12,0h7.29c.22,0,.26,0,.26-.23V500.89h-6.86c0,.64-.1,11-.15,11.18a2.06,2.06,0,0,1-.83.92,6,6,0,0,1-1.16.51c-.1,0-21.06,0-21.5-.33a2,2,0,0,1-.87-1.38V486.72c0-.22,0-.44,0-.66a3.12,3.12,0,0,1,.75-1.93c.84-1,2.11-.84,3.27-.84Z" transform="translate(-270.76 -325.55)"/><g id="Capa_7" data-name="Capa 7"><path class="cls-4" d="M509.44,510.48c-4.38-13.87-15.24-20.54-19.78-23.33-17.89-11-37-7-44.62-4.81-5,1.49-14.81,4.51-23.07,13.69a46.62,46.62,0,0,0-10.39,20.28c-.94,4-3.24,14.56,1.52,26.37A38.5,38.5,0,0,0,423,557.13c17.95,15.8,50.51,9.94,57.38,7.6,10.49-3.56,22.07-10.46,27-22.12A51.67,51.67,0,0,0,509.44,510.48Zm-36.76,12.29c0,8.28-.08,15.31-5.33,18.77a13.45,13.45,0,0,1-15.08-.89c-4.11-3.38-4.14-8.62-4.19-17.11,0-8.26-.06-12.87,3.55-16.1,4.53-4.06,12.78-4.16,17.37-.13C472.73,510.59,472.71,515.42,472.68,522.77Z" transform="translate(-270.76 -325.55)"/><path class="cls-5" d="M472.68,522.77c0,8.28-.08,15.31-5.33,18.77a13.45,13.45,0,0,1-15.08-.89c-4.11-3.38-4.14-8.62-4.19-17.11,0-8.26-.06-12.87,3.55-16.1,4.53-4.06,12.78-4.16,17.37-.13C472.73,510.59,472.71,515.42,472.68,522.77Z" transform="translate(-270.76 -325.55)"/></g><path class="cls-6" d="M703.27,510.6c-4.37-13.87-15.23-20.53-19.77-23.32-17.89-11-37-7.06-44.62-4.82-5,1.49-14.81,4.52-23.07,13.69a46.69,46.69,0,0,0-10.39,20.28c-.95,4-3.25,14.57,1.52,26.37a38.48,38.48,0,0,0,9.88,14.45c18,15.81,50.51,9.94,57.38,7.61,10.49-3.57,22.08-10.46,27-22.12A51.54,51.54,0,0,0,703.27,510.6Zm-36.76,12.3c0,8.28-.07,15.31-5.32,18.76a13.44,13.44,0,0,1-15.08-.89c-4.12-3.38-4.14-8.62-4.19-17.11,0-8.25-.06-12.86,3.55-16.1,4.53-4.05,12.78-4.16,17.37-.13C666.57,510.71,666.55,515.54,666.51,522.9Z" transform="translate(-270.76 -325.55)"/><path class="cls-5" d="M666.51,522.9c0,8.28-.07,15.31-5.32,18.76a13.44,13.44,0,0,1-15.08-.89c-4.12-3.38-4.14-8.62-4.19-17.11,0-8.25-.06-12.86,3.55-16.1,4.53-4.05,12.78-4.16,17.37-.13C666.57,510.71,666.55,515.54,666.51,522.9Z" transform="translate(-270.76 -325.55)"/><path class="cls-7" d="M803.27,574.62a1.79,1.79,0,0,0-1.27-2l-8.24-1.9s-2.85-1.08-3.3-.13c0,0-1,21.81-1.34,3.17a42.81,42.81,0,0,0-12.6-29.53c5.83-3.05,16.48-21.43,11.16-40.44s-31.57-20.07-31.57-20.07H706.68c-2.12.17-1.74,2.62-1.74,2.62V503.8c0,2.49,7.48,1.86,7.48,1.86l.17,54.09h-4.48c-2.83,0-2.53,2.11-2.53,2.11v16.73a2.78,2.78,0,0,0,2,2.68l41,12.19s3.6,1.66,4.42-2.11v-19.6a2.37,2.37,0,0,0-1.86-2.62h-3.38c-3.38,0-2.71-2.2-2.71-2.2V550.7c5.92-.08,8.28,5.92,8.28,5.92v5.92c0,17.74,4.57,25.35,4.57,25.35,4.9,7.94,22.69,23.57,32.57,21.29s12.68-12.63,12.81-13.9S803.27,574.62,803.27,574.62ZM755.48,527c-3.36,3.42-10.71,2.09-10.71,2.09V508.2s7.35-1.33,10.71,2.09c1.59,1.62,2.91,4.78,3.27,8.18S757.07,525.34,755.48,527Z" transform="translate(-270.76 -325.55)"/><path class="cls-8" d="M755.48,527c-3.36,3.42-10.71,2.09-10.71,2.09V508.2s7.35-1.33,10.71,2.09c1.59,1.62,2.91,4.78,3.27,8.18S757.07,525.34,755.48,527Z" transform="translate(-270.76 -325.55)"/></g><g id="Capa_4" data-name="Capa 4"><path class="cls-9" d="M717.55,450,655,467.3a134,134,0,0,0-227.28.33l-62.5-17.22a197.07,197.07,0,0,1,352.3-.4Z" transform="translate(-270.76 -325.55)"/><path class="cls-9" d="M717,626.05a197.07,197.07,0,0,1-353,.08l62.74-16.75a134,134,0,0,0,227.49,0Z" transform="translate(-270.76 -325.55)"/><path class="cls-10" d="M266.5,666.5" transform="translate(-270.76 -325.55)"/><path d="M408.1,412l6.15,5-4.17,5.17L434.69,442l-7,8.7-24.61-19.85L398.91,436l-6.16-5Z" transform="translate(-270.76 -325.55)"/><path d="M428.22,394l30.53,25.91-8.69,7.42-5.07-5-3,2.59,4.1,5.84-8.79,7.51L415.93,404.5Zm12,23.18q-5-4.56-12.08-11.52,6.08,9.73,9.15,14Z" transform="translate(-270.76 -325.55)"/><path d="M450.39,379.44l16,27.29,5.86-3.43,4,6.83-15.52,9.08-20-34.12Z" transform="translate(-270.76 -325.55)"/><path d="M474.72,368.07l11.72,29.37,6.31-2.52,2.93,7.34L479,408.93l-14.66-36.71Z" transform="translate(-270.76 -325.55)"/><path d="M489.68,362.91l18.16-4.2,1.78,7.71-7.27,1.68,1.69,7.3,6.8-1.57,1.7,7.33-6.81,1.57,2,8.47,8-1.85,1.78,7.71-18.89,4.36Z" transform="translate(-270.76 -325.55)"/><path d="M518.69,357l7.9-.41a65.23,65.23,0,0,1,10.73,0A7.39,7.39,0,0,1,542,359.2c1.25,1.48,2,3.9,2.14,7.26.16,3.07-.16,5.16-.93,6.26s-2.38,1.82-4.81,2.15q3.35.58,4.56,1.8a5.91,5.91,0,0,1,1.53,2.25,32.64,32.64,0,0,1,.58,5.83l.53,10.41-10.37.53-.67-13.12c-.11-2.11-.35-3.41-.74-3.9s-1.35-.69-2.89-.61l.91,17.8-11.17.57Zm11.51,6.18.45,8.78a5.38,5.38,0,0,0,2.61-.61q.74-.51.6-3.12l-.11-2.17a3.09,3.09,0,0,0-.86-2.43A4.49,4.49,0,0,0,530.2,363.14Z" transform="translate(-270.76 -325.55)"/><path d="M589.47,374.48l-10.15-2.19.62-2.86a5.45,5.45,0,0,0,.16-2.64,1.53,1.53,0,0,0-1.18-.83,1.73,1.73,0,0,0-1.65.42,4.07,4.07,0,0,0-1,2.13,6.28,6.28,0,0,0-.06,3,8.49,8.49,0,0,0,2.58,3q6.44,5.55,7.78,8.52t.12,8.64a13.76,13.76,0,0,1-2.36,5.86,8.29,8.29,0,0,1-4.77,2.4,17.62,17.62,0,0,1-7.3-.19,17.28,17.28,0,0,1-7.16-3.14,7.94,7.94,0,0,1-3.22-4.77,18.78,18.78,0,0,1,.49-6.91l.54-2.53,10.15,2.19-1,4.7a6,6,0,0,0-.18,2.89,1.79,1.79,0,0,0,1.39.95,1.88,1.88,0,0,0,1.79-.44,4.34,4.34,0,0,0,1-2.23q.74-3.4-.05-4.68a33.42,33.42,0,0,0-4.36-4.61,50.83,50.83,0,0,1-4.62-4.77,8.57,8.57,0,0,1-1.52-3.57,12.92,12.92,0,0,1,.22-5.25q1-4.44,2.63-6.23a8.35,8.35,0,0,1,4.68-2.35,17.65,17.65,0,0,1,6.9.28,19.18,19.18,0,0,1,7,2.83,7.59,7.59,0,0,1,3.28,4.05q.56,2.13-.43,6.73Z" transform="translate(-270.76 -325.55)"/><path d="M617.78,397.92a79.66,79.66,0,0,1-3.67,7.6,9,9,0,0,1-3.57,3.39,10.22,10.22,0,0,1-5.24,1.14A17,17,0,0,1,599,408.5a17.75,17.75,0,0,1-5.27-3.44,10.22,10.22,0,0,1-2.8-4.63,9,9,0,0,1,0-4.94,78.91,78.91,0,0,1,3.14-7.95l2.71-6.19a80.17,80.17,0,0,1,3.67-7.61,9,9,0,0,1,3.57-3.38,10.22,10.22,0,0,1,5.24-1.14,17.09,17.09,0,0,1,6.28,1.55,17.51,17.51,0,0,1,5.26,3.44,10.17,10.17,0,0,1,2.8,4.63,8.88,8.88,0,0,1,0,4.93,75.52,75.52,0,0,1-3.14,8Zm-5-16.38a11.17,11.17,0,0,0,1.11-3.37,1.33,1.33,0,0,0-.94-1.25,1.61,1.61,0,0,0-1.48,0c-.45.26-1.08,1.32-1.9,3.18L602.13,397a16.72,16.72,0,0,0-1.42,4,1.34,1.34,0,0,0,1,1.31,1.37,1.37,0,0,0,1.71-.27,17.79,17.79,0,0,0,2.06-3.92Z" transform="translate(-270.76 -325.55)"/><path d="M646.08,388.83,628.38,415l5.63,3.8-4.42,6.56-14.9-10.06,22.12-32.76Z" transform="translate(-270.76 -325.55)"/><path d="M666.62,405.62,640.21,435l-8.32-7.48,26.42-29.4Z" transform="translate(-270.76 -325.55)"/><path d="M680.08,439.49l-6.45-8.15,2.3-1.81a5.38,5.38,0,0,0,1.8-1.94,1.52,1.52,0,0,0-.38-1.39,1.72,1.72,0,0,0-1.54-.72,4.1,4.1,0,0,0-2.13,1,6,6,0,0,0-2,2.3,8.29,8.29,0,0,0,.06,4q1.44,8.39.6,11.52c-.57,2.1-2.37,4.34-5.41,6.75a13.88,13.88,0,0,1-5.55,3,8.26,8.26,0,0,1-5.21-1.18,17.65,17.65,0,0,1-5.51-4.78,17.22,17.22,0,0,1-3.53-7,8.06,8.06,0,0,1,.54-5.73,18.9,18.9,0,0,1,4.77-5l2-1.61,6.45,8.14-3.78,3a5.85,5.85,0,0,0-2,2.11,1.75,1.75,0,0,0,.46,1.61,1.86,1.86,0,0,0,1.66.81,4.29,4.29,0,0,0,2.22-1.06c1.82-1.45,2.8-2.66,2.94-3.65a33.35,33.35,0,0,0-.44-6.33,52.36,52.36,0,0,1-.53-6.61,8.57,8.57,0,0,1,1.09-3.73,12.8,12.8,0,0,1,3.51-3.91c2.38-1.88,4.37-2.93,6-3.13a8.32,8.32,0,0,1,5.11,1.15,17.73,17.73,0,0,1,5.14,4.6,19.15,19.15,0,0,1,3.59,6.62,7.58,7.58,0,0,1,0,5.21q-.93,2-4.62,4.93Z" transform="translate(-270.76 -325.55)"/><path d="M423.36,635.7l-27.11,21.79-3.86-4.8L410.69,638l-19.84,12.8-2.74-3.41L404.37,631l-17.89,14.37-3.86-4.8,27.11-21.8,5.72,7.12q-2.19,2.28-5.24,5.28l-6.27,6.32,13.67-8.91Z" transform="translate(-270.76 -325.55)"/><path d="M425.26,637.52l8.17,8.45-5,4.84-3.27-3.38L420.41,652l3.06,3.17-4.76,4.59-3.06-3.16-5.5,5.31,3.59,3.72-5,4.84-8.5-8.8Z" transform="translate(-270.76 -325.55)"/><path d="M437.52,669.92l-5.31-4.63,4-4.56a14,14,0,0,0,2-2.62.93.93,0,0,0-.32-1.15,1,1,0,0,0-1.35-.13,15.18,15.18,0,0,0-2.44,2.43l-10.63,12.17a14,14,0,0,0-2,2.65,1.09,1.09,0,0,0,1.57,1.37,17,17,0,0,0,2.58-2.58l2.87-3.3,5.31,4.64-.89,1a34,34,0,0,1-5.49,5.38,7.66,7.66,0,0,1-4.58,1.25,7.56,7.56,0,0,1-4.9-2,8.6,8.6,0,0,1-2.9-4.45,6.84,6.84,0,0,1,.62-4.75,33.7,33.7,0,0,1,4.55-6.2l6.68-7.65a54.76,54.76,0,0,1,3.87-4.11,9.15,9.15,0,0,1,3.28-1.94,7.11,7.11,0,0,1,3.88-.24,8,8,0,0,1,3.72,1.92,8.25,8.25,0,0,1,2.86,4.54,7.14,7.14,0,0,1-.53,4.65,29.71,29.71,0,0,1-4.25,5.83Z" transform="translate(-270.76 -325.55)"/><path d="M459.15,666.91l-16.9,30.67-5.87-4.19,3.32-5.31-2.06-1.46-4,4.84-5.94-4.22L450.85,661Zm-16,16q3-5.12,7.61-12.52-6.68,7.52-9.58,11.12Z" transform="translate(-270.76 -325.55)"/><path d="M476.81,677.35l-17.07,30.3-5.39-3L458.92,689l-7.76,13.78-5.14-2.9,17.08-30.3,5.13,2.9L464,688.1l7.69-13.64Z" transform="translate(-270.76 -325.55)"/><path d="M485.67,681.25,471.41,713,465,710.09l14.26-31.73Z" transform="translate(-270.76 -325.55)"/><path d="M498.68,702,492,699.75l1.94-5.73a14.08,14.08,0,0,0,.84-3.19,1,1,0,0,0-.74-.94,1,1,0,0,0-1.3.4,15,15,0,0,0-1.32,3.18l-5.17,15.31a14.62,14.62,0,0,0-.84,3.21,1,1,0,0,0,.75,1.07,1,1,0,0,0,1.23-.4,16.34,16.34,0,0,0,1.39-3.37l1.4-4.15,6.68,2.26-.43,1.28a33.75,33.75,0,0,1-3,7.07,7.65,7.65,0,0,1-3.75,2.91,7.55,7.55,0,0,1-5.3,0,8.57,8.57,0,0,1-4.38-3,6.83,6.83,0,0,1-1.25-4.63,33.2,33.2,0,0,1,1.83-7.47l3.26-9.63q1.2-3.56,2-5.27a9.21,9.21,0,0,1,2.29-3,7.16,7.16,0,0,1,3.5-1.71,8,8,0,0,1,4.17.35,8.27,8.27,0,0,1,4.37,3.11,7.16,7.16,0,0,1,1.29,4.5,29.22,29.22,0,0,1-1.69,7Z" transform="translate(-270.76 -325.55)"/><path d="M517.24,690.49l-3,34.89L507.21,724l.87-6.2-2.47-.5-1.66,6-7.14-1.45,10.44-33.37Zm-8.11,21.18q.64-5.89,1.85-14.53-3,9.57-4.23,14.05Z" transform="translate(-270.76 -325.55)"/><path d="M540.35,692.32l3,34.89-7.21-.21-.19-6.26-2.52-.08-.61,6.24-7.29-.22L530.16,692ZM536,714.57q-.37-5.93-.65-14.64-1.37,10-1.78,14.57Z" transform="translate(-270.76 -325.55)"/><path d="M560.79,690.81l2.26,23.13a51.23,51.23,0,0,1,.35,5.55,8.68,8.68,0,0,1-.87,3.39,6.54,6.54,0,0,1-2.34,2.79,7.79,7.79,0,0,1-3.71,1.24,8.57,8.57,0,0,1-4.36-.61,6.9,6.9,0,0,1-3-2.4,8.73,8.73,0,0,1-1.43-3.37c-.23-1.2-.53-3.76-.92-7.67l-2-20.48,7-.69,2.55,26a13.34,13.34,0,0,0,.47,2.88.77.77,0,0,0,.84.55.83.83,0,0,0,.79-.78,16.7,16.7,0,0,0-.13-3.3l-2.5-25.51Z" transform="translate(-270.76 -325.55)"/><path d="M576.67,687.29l1.52,6.79-4.09.91,6.07,27.16-6.88,1.53-6.07-27.15-4.07.91-1.52-6.79Z" transform="translate(-270.76 -325.55)"/><path d="M599.59,700.88q1.74,4.95,2.28,7.07a9.79,9.79,0,0,1,.18,4.16,7,7,0,0,1-1.66,3.52,8.12,8.12,0,0,1-3.47,2.25,8.29,8.29,0,0,1-4,.44,7,7,0,0,1-3.54-1.66,9.84,9.84,0,0,1-2.51-3.33q-.9-2-2.68-7l-2-5.61c-1.16-3.3-1.92-5.65-2.28-7.07a10,10,0,0,1-.19-4.16,7,7,0,0,1,1.67-3.52,8.06,8.06,0,0,1,3.47-2.25,8.29,8.29,0,0,1,4-.44,7,7,0,0,1,3.54,1.66,9.68,9.68,0,0,1,2.5,3.33c.61,1.31,1.5,3.65,2.69,7Zm-10.45-8.44a14.15,14.15,0,0,0-1.23-2.86.86.86,0,0,0-1-.35.93.93,0,0,0-.61.8,9.65,9.65,0,0,0,.79,3.15l5.4,15.32a20.27,20.27,0,0,0,1.42,3.46.86.86,0,0,0,1.08.37.92.92,0,0,0,.6-1.07,21.39,21.39,0,0,0-1.1-3.74Z" transform="translate(-270.76 -325.55)"/><path d="M613.79,671.15l16,30.89-5.47,2.83L613.5,684l8.62,22-3.88,2-12.85-19.19,10.54,20.38L610.46,712l-16-30.89,8.1-4.2q1.8,2.61,4.14,6.19l5,7.39-6-15.17Z" transform="translate(-270.76 -325.55)"/><path d="M640.29,677.47c2,2.87,3.35,4.94,4.07,6.21a9.71,9.71,0,0,1,1.28,4,7,7,0,0,1-.67,3.84,8.09,8.09,0,0,1-2.75,3.08,8.29,8.29,0,0,1-3.74,1.48,6.9,6.9,0,0,1-3.85-.66,9.72,9.72,0,0,1-3.3-2.55c-.92-1.1-2.4-3.13-4.44-6.07l-3.39-4.89q-3-4.3-4.07-6.21a9.86,9.86,0,0,1-1.28-4,7,7,0,0,1,.67-3.84,8.12,8.12,0,0,1,2.75-3.09,8.39,8.39,0,0,1,3.74-1.47,6.88,6.88,0,0,1,3.85.66,9.72,9.72,0,0,1,3.3,2.55c.92,1.1,2.41,3.12,4.45,6.07ZM628,672.09a13.62,13.62,0,0,0-1.94-2.43.84.84,0,0,0-1.09-.07.91.91,0,0,0-.39.94,9.86,9.86,0,0,0,1.6,2.82l9.25,13.35a20.23,20.23,0,0,0,2.29,3,.86.86,0,0,0,1.14.08.91.91,0,0,0,.29-1.2,21.71,21.71,0,0,0-2-3.31Z" transform="translate(-270.76 -325.55)"/><path d="M641.36,650.06l4.49,5.32-3.2,2.7,18,21.25-5.38,4.56-18-21.26-3.18,2.69-4.5-5.31Z" transform="translate(-270.76 -325.55)"/><path d="M642.41,649.09l3.51-3.55a30.7,30.7,0,0,1,5.11-4.45,4.85,4.85,0,0,1,3.82-.27c1.49.43,3.28,1.69,5.39,3.77q2.88,2.86,3.32,4.41a3.82,3.82,0,0,1-1,3.38,5,5,0,0,1,3.24-.75,6.08,6.08,0,0,1,2.09.81,41.92,41.92,0,0,1,3.78,3.5l6.51,6.46-4.61,4.65-8.21-8.14a10.13,10.13,0,0,0-2.69-2.19c-.48-.15-1.06.12-1.75.81l11.14,11-5,5Zm9.19-.82,5.49,5.45a2.6,2.6,0,0,0,.88-1.48c0-.43-.51-1.18-1.6-2.26L655,648.64a3.42,3.42,0,0,0-1.86-1.2A2.16,2.16,0,0,0,651.6,648.27Z" transform="translate(-270.76 -325.55)"/><path d="M659.91,630.38l26.34,22.73-4.61,5.33-26.33-22.72Z" transform="translate(-270.76 -325.55)"/><path d="M669.12,618.66l5.51,4.25L688,639.8l3.21-4.15,5.51,4.25-7.94,10.29-4-3.08L670,628.9l-2.92,3.8-5.51-4.26Z" transform="translate(-270.76 -325.55)"/></g><g id="Capa_3" data-name="Capa 3"><path class="cls-11" d="M461,606.33l1.86-.7,9.06-3.42a65.31,65.31,0,0,1,7.91-2.6,32.37,32.37,0,0,1,9.71-.77c2.47.17,5.86.3,7.87,1.91,3.74,3,2.33,8.59.71,12.33a49.23,49.23,0,0,1-8.7,13.26,70,70,0,0,1-13.38,11.33,104,104,0,0,1-15.71,7.9c-1.59.68-3.22,1.29-4.87,1.82a18.58,18.58,0,0,1-9.79.18c-2.4-.61-4.74-2.3-5.2-4.73a9.12,9.12,0,0,1,.59-5.65,4.19,4.19,0,0,1,2.08-1.84c.62-.24,2.13-.59,2,.51-.09,1.29-.48,3.53.91,4.26a4.41,4.41,0,0,0,1.76.37,21,21,0,0,0,3.36.09c2.81-.21,5.37-1.59,7.9-2.75a63.94,63.94,0,0,0,7.3-3.92A57.85,57.85,0,0,0,483.24,618a14.6,14.6,0,0,0,2.47-8c.15-2.38.56-5.4-2.19-6.28a7.18,7.18,0,0,0-3.06-.18,30.31,30.31,0,0,0-5.45,1.33c-2.68.82-5.29,1.66-7.86,2.71-1.8.73-3.65,1.42-5.37,2.31s-3.31,1.38-4.94,2.19c-2.45,1.23-5.4,2-7.94.5a6.5,6.5,0,0,1-2.86-3.63c-.42-1.75.83-3.64,1.76-5,1.78-2.6,3.52-5.36,5.52-7.76,1.13-1.35,2.32-2.66,3.58-3.9,2-1.92,4.16-3.7,6.28-5.45a74.19,74.19,0,0,1,7.06-5.29,104,104,0,0,1,10.38-5.64,36.09,36.09,0,0,1,6.34-2.63c3.21-.85,7.35-1.09,10.25.74,3.6,2.29,5.41,7.93,2.57,11.48a1.62,1.62,0,0,1-.53.48c-1,.48-1.45-.39-2.06-.88a7.41,7.41,0,0,0-2.81-1.16,23.63,23.63,0,0,0-6-.47c-5.66,0-18.9,8.69-21.41,10.12-3,1.7-10.49,9.32-11,10.07s-2.22,3.2-1.27,4.08,2.8,0,3.68-.38Z" transform="translate(-270.76 -325.55)"/><path class="cls-9" d="M461.31,607.41l11.36-4.28a46.57,46.57,0,0,1,10.85-3,33.08,33.08,0,0,1,10,.29c2.95.57,5,2.32,5.12,5.44a17.19,17.19,0,0,1-2.05,7.89,48,48,0,0,1-5.83,9.33A64.79,64.79,0,0,1,474.7,637.2a82.84,82.84,0,0,1-9.83,5.16,65.75,65.75,0,0,1-10.45,4.16c-3,.79-6.95.85-9.84-.53a6,6,0,0,1-2.75-7.74,3.21,3.21,0,0,1,1.27-1.61,5.52,5.52,0,0,1,1.35-.41l-.36-.37c0,.18,0,.35,0,.53s-.05.59-.06.89a5.91,5.91,0,0,0,.21,2.09,3.06,3.06,0,0,0,2.31,2.07,15.3,15.3,0,0,0,5.48.18c3.44-.45,6.75-2.29,9.81-3.82a62.08,62.08,0,0,0,9.15-5.6,60.74,60.74,0,0,0,7.66-6.76c2.43-2.56,5.12-5.49,6.66-8.69a20.73,20.73,0,0,0,1.68-8.56c.07-2.39-.61-4.77-3.12-5.58-3.31-1.06-7.31.58-10.44,1.57A104.37,104.37,0,0,0,463.25,608c-1.7.73-3.36,1.56-5.06,2.28a26.8,26.8,0,0,1-4.77,1.9,5.25,5.25,0,0,1-4.94-1.32c-1.6-1.56-1.63-3.17-.54-5a62.71,62.71,0,0,1,13.9-16.4,91.9,91.9,0,0,1,9-6.88,97.81,97.81,0,0,1,10-5.43c5.05-2.49,13.84-6.19,17.92,0,1.34,2,2.08,5.23.5,7.35-.32.42-.32.53-.76.31-.22-.1-.46-.43-.67-.58a6,6,0,0,0-1.61-.84,17.37,17.37,0,0,0-5.45-.93,17.74,17.74,0,0,0-6.48.83,47.69,47.69,0,0,0-6.38,2.81c-3.72,1.91-7.26,4.12-10.85,6.27a49.34,49.34,0,0,0-9,7.6,37,37,0,0,0-2.88,3c-1.06,1.32-2.74,3.9-1.4,5.52,1.73,2.08,5.72-.24,7.58-.94,1.35-.5.77-2.68-.59-2.17a28.44,28.44,0,0,1-4.53,1.62c-.17,0-.73.06-.73.07s.16-.52.2-.63a8.34,8.34,0,0,1,.85-1.55,24.13,24.13,0,0,1,2.81-3,50.34,50.34,0,0,1,9.26-7.8c3.86-2.35,7.71-4.7,11.77-6.68a28.94,28.94,0,0,1,6.44-2.47,15.31,15.31,0,0,1,3.45-.19,14.17,14.17,0,0,1,5.54,1c1.27.58,2,2.08,3.6,1.56,1.25-.39,2-1.84,2.44-3a9.3,9.3,0,0,0-.93-7.79c-3.38-5.76-10.86-5.56-16.4-3.41A90.77,90.77,0,0,0,474,578a65.92,65.92,0,0,0-9.58,6.38,95.61,95.61,0,0,0-8.89,7.68,60.67,60.67,0,0,0-7,8.82c-1.67,2.48-4.55,5.63-3.35,8.86a7.48,7.48,0,0,0,7.77,4.71,14.58,14.58,0,0,0,4.71-1.55c1.76-.84,3.58-1.54,5.34-2.39a81.41,81.41,0,0,1,10.8-4.12,49.8,49.8,0,0,1,5.85-1.64c1.42-.26,3.88-.65,4.73.9a6.74,6.74,0,0,1,.31,3.57,20.44,20.44,0,0,1-.78,5c-1.11,3.47-4,6.52-6.41,9.15a57,57,0,0,1-8.35,7.39,62.32,62.32,0,0,1-9.69,5.7,51.71,51.71,0,0,1-5.45,2.39,14.58,14.58,0,0,1-5.84.53c-.69-.06-1.52,0-1.8-.76a4.78,4.78,0,0,1-.05-2c.09-1.14,0-2.29-1.31-2.63-2.57-.65-4.89,1.94-5.47,4.15-.75,2.81-.36,6.19,1.82,8.26,2.34,2.22,5.76,2.79,8.88,2.81a25.83,25.83,0,0,0,10.29-2.54c3.62-1.53,7.23-3.11,10.72-4.93A69.47,69.47,0,0,0,489,628.41c4.77-4.95,9.19-11,11.18-17.71.76-2.54,1.12-5.43.08-7.94-1.17-2.83-3.8-4.18-6.69-4.65a37.6,37.6,0,0,0-10.54-.21,48.9,48.9,0,0,0-11,3.06l-11.35,4.28C459.37,605.75,460,607.92,461.31,607.41Z" transform="translate(-270.76 -325.55)"/><path class="cls-11" d="M514.84,598.89a5.28,5.28,0,0,1-.1,2.55c-.29,2-.93,4-1.15,6-.07.68-.42,2.25,0,2.81s.52-.28.65-.56c.26-.52.53-1,.79-1.54l2.69-5.1a18.79,18.79,0,0,1,3.23-4.48,11.93,11.93,0,0,1,6.68-3.4,11.21,11.21,0,0,1,4.08.17,7.23,7.23,0,0,1,4.22,3,16.92,16.92,0,0,1,1.89,10.27,30.53,30.53,0,0,1-5.51,14.46c-3.32,4.73-8.38,7.43-13.91,8.83a11.06,11.06,0,0,1-1.7.32c-.46,0-.91,0-1.36.09a3.78,3.78,0,0,1-.75,0,1.54,1.54,0,0,1-.68-.1.34.34,0,0,1,0-.5,1,1,0,0,1,.49-.28,13.11,13.11,0,0,0,6.42-5.09,31.94,31.94,0,0,0,2.44-5.11,23.93,23.93,0,0,0,1-2.45c.28-1,.52-2,.77-2.93a50.87,50.87,0,0,0,1-5c.26-1.81.38-3.63.51-5.44l.12-1.8a4.26,4.26,0,0,0-.68-3.28,1.63,1.63,0,0,0-1.19-.55,2.46,2.46,0,0,0-1.31.6,15.18,15.18,0,0,0-1.69,1.51,12.78,12.78,0,0,0-2.36,3.41c-.67,1.34-1.56,2.61-2.29,3.93a87.33,87.33,0,0,0-3.93,8,67.91,67.91,0,0,0-4.81,16.81,60.27,60.27,0,0,0,.13,18c.52,3.32-1.73,5.84-4.9,3.84-3.71-2.34-4-8.32-3.93-12.26a153.82,153.82,0,0,1,.83-18.34,29.64,29.64,0,0,1,.78-5.11q.9-5,2.23-9.88.66-2.45,1.41-4.87c.46-1.46.8-2.92,1.29-4.37a4.68,4.68,0,0,1,1.43-2.46,3.82,3.82,0,0,1,1.22-.54,10.83,10.83,0,0,1,3-.32c.66,0,1.89-.08,2.43.37a1.62,1.62,0,0,1,.32.41A2.26,2.26,0,0,1,514.84,598.89Z" transform="translate(-270.76 -325.55)"/><path class="cls-9" d="M513.75,599.19c.36,1.39-.34,3.35-.64,4.72s-.58,2.86-.76,4.32a3.45,3.45,0,0,0,.47,2.81c.86.9,1.86.32,2.34-.58,2.68-5,4.89-11.75,10.84-13.75,2.84-1,6.42-.81,8.51,1.58,2,2.23,2.38,5.81,2.32,8.65a27.94,27.94,0,0,1-6.23,16.6,20.72,20.72,0,0,1-7,5.33,26.75,26.75,0,0,1-4.39,1.66,16,16,0,0,1-2.53.59,7.46,7.46,0,0,1-2.49.07l.67.51-.13-.23.12.87.09-.27-.52.67c.94-.73,2.29-1,3.31-1.72a14.22,14.22,0,0,0,2.87-2.55c1.77-2.09,2.65-4.56,3.75-7,2.35-5.3,3-11.17,3.35-16.91.14-2.06.29-5.14-2.3-5.78-2.24-.55-4.56,2.31-5.69,3.88-.8,1.1-1.35,2.34-2,3.51-.82,1.39-1.66,2.76-2.41,4.19a85.93,85.93,0,0,0-3.68,7.91,67.13,67.13,0,0,0-4.52,17.28,61,61,0,0,0-.36,9.74c.07,1.46.18,2.92.35,4.38a13.93,13.93,0,0,1,.35,4.11c-.5,2.63-3.08,1.69-4.35.18a10.75,10.75,0,0,1-2-5.66,53.51,53.51,0,0,1-.18-7c0-3.06.06-6.12.22-9.18a101.67,101.67,0,0,1,3.3-20.5c.86-3.26,1.79-6.53,2.81-9.74.49-1.53,1-2.47,2.64-2.78a12.27,12.27,0,0,1,2.35-.14c.69,0,1.32-.14,1.67.57.63,1.3,2.57.16,1.94-1.14-.83-1.69-2.42-1.69-4.1-1.68s-4,.2-5.32,1.68-1.6,3.73-2.11,5.52c-.65,2.3-1.37,4.57-2,6.88s-1.2,4.84-1.68,7.28a50.72,50.72,0,0,0-1.16,6.68c-.15,2.38-.47,4.74-.6,7.13s-.19,5-.22,7.49c0,3.72-.27,7.56.53,11.22.66,3,2.39,6.35,5.64,7.1,3.44.81,5.25-2.58,4.87-5.55a63,63,0,0,1,8.58-42.44c.56-1,1.19-1.94,1.74-2.93a26.6,26.6,0,0,1,1.7-2.93,12.78,12.78,0,0,1,2.25-2.28c.58-.46,1-.77,1.48,0a3,3,0,0,1,.17,1.42,60.69,60.69,0,0,1-2,13.93,40.66,40.66,0,0,1-2.39,6.27,14.16,14.16,0,0,1-3.74,5.27,12.17,12.17,0,0,1-2.6,1.65c-.78.36-1.75.52-2.1,1.41-.92,2.32,2.46,2,3.68,1.91a24.44,24.44,0,0,0,10.92-4.06,23.87,23.87,0,0,0,7.94-9A30.81,30.81,0,0,0,539,608c.26-3.83-.31-8.75-3.19-11.58s-7.73-3.07-11.45-1.49c-4.16,1.77-6.49,5.4-8.51,9.24-1,1.82-1.77,3.87-2.89,5.58l.67-.52-.15.07.87.11c.28.21.16-.61.18-.86s.08-.59.13-.89c.14-1.07.35-2.1.59-3.15.41-1.85,1.12-4,.64-5.92A1.13,1.13,0,0,0,513.75,599.19Z" transform="translate(-270.76 -325.55)"/><path class="cls-11" d="M621.05,620.8c-4.15.82-7.73-4.74-8.93-8a30.61,30.61,0,0,1-1.06-15.08c.9-5.72,3-11.2,5.1-16.58.44-1.12,1.21-2.62,1.12-3.86-.12-1.53-1-1-2.47-.93-2.87.06-5.74-.07-8.61.07a36.58,36.58,0,0,1-10.6-.52,19,19,0,0,1-4.84-2c-.41-.24-1.75-1.08-1.54-1.73.16-.49,2.2-.39,2.73-.44,4.51-.38,9-.77,13.57-1.11,3.53-.26,7.06-.64,10.58-1,1.22-.14,3.3.13,3.93-1a16,16,0,0,0,.82-3.29l1.23-4.26a62.14,62.14,0,0,1,2-6.48,5,5,0,0,1,1-1.66,3.93,3.93,0,0,1,1.19-.77,5.21,5.21,0,0,1,2.92-.48c1.9.32,4.35,2,4.25,4.08-.05,1-.16,1.95-.27,2.92-.3,2.71-1.43,5.18-1.12,8,.1.89,28.33-4.76,33.9-5.93-2.22,1.56-4.7,2.07-7.15,3.24s-5.52,1.77-8.2,2.57c-5.59,1.66-11,3.86-16.61,5.28-3.78,1-5.9,2.16-6.86,5.76-1.7,6.43-4.33,12.69-5.38,19.2C620.49,604,621.52,612.6,621.05,620.8Z" transform="translate(-270.76 -325.55)"/><path class="cls-9" d="M620.75,619.72c-2.77.45-5-2.55-6.26-4.62a21.47,21.47,0,0,1-2.72-9.79c-.48-8.22,2.37-16.16,5.39-23.68.69-1.73,2.73-6.52-.84-6.55-1.69,0-3.4.14-5.1.14q-3.09,0-6.18.11c-4,.18-8.12.16-11.89-1.46a13.39,13.39,0,0,1-2.16-1.12c-.12-.08-.54-.52-.64-.53s-.34.79-.35.78.61-.07.59-.07c1.58-.12,3.16-.2,4.75-.33,4.19-.36,8.39-.65,12.59-1q3.12-.29,6.25-.63c1.5-.17,3.07-.15,4.55-.41a3.19,3.19,0,0,0,2.67-2.35c.25-.79.29-1.63.49-2.43.25-1,.58-2,.86-3,.56-1.92,1-3.86,1.63-5.77a13.33,13.33,0,0,1,1-2.74,3.21,3.21,0,0,1,2.29-1.44,4.3,4.3,0,0,1,4.16,1.74,3.48,3.48,0,0,1,.28,2.4,27.7,27.7,0,0,1-.46,3.29,26.47,26.47,0,0,0-.89,5.29c0,.9,0,1.92,1,2.23a6.71,6.71,0,0,0,2.6-.1c1.67-.22,3.34-.48,5-.76,8.43-1.42,16.82-3.08,25.18-4.8l1.62-.33-.86-2.06a20,20,0,0,1-4,2c-1.43.54-2.8,1.2-4.22,1.74-2.73,1-5.63,1.6-8.42,2.48-3.07,1-6.1,2.06-9.16,3.06-2.67.88-5.49,1.42-8.12,2.42a8.38,8.38,0,0,0-4.34,3.31c-1.35,2.18-1.73,5-2.5,7.46-1.81,5.76-3.81,11.48-4.34,17.54-.61,7,.13,14.09-.26,21.13-.07,1.45,2.18,1.44,2.25,0,.33-6-.12-12,.08-18.08s1.76-11.63,3.59-17.33c.87-2.72,1.58-5.51,2.49-8.22a5.85,5.85,0,0,1,3.77-3.69c2.59-1,5.36-1.51,8-2.37,2.84-.92,5.64-1.94,8.49-2.85,3.06-1,6.28-1.59,9.28-2.77,1.49-.58,2.94-1.24,4.43-1.81a20.84,20.84,0,0,0,4.16-2,1.13,1.13,0,0,0-.87-2q-12.3,2.58-24.69,4.77c-1.92.33-3.85.66-5.78.94-.59.08-1.18.16-1.77.22a4.13,4.13,0,0,0-1.12,0c.16-.1.41.25.49.31.66.45.25.28.34-.14a3.4,3.4,0,0,0,0-.64,18.32,18.32,0,0,1,.51-3,34.12,34.12,0,0,0,.88-5.86c.19-3.09-2.59-5.46-5.55-5.72a6.27,6.27,0,0,0-4.7,1.6c-1.22,1.23-1.71,3.33-2.18,4.94-.59,2-1.13,4.05-1.71,6.06a27.67,27.67,0,0,0-.74,2.81c-.13.74-.12,2-.87,2.34a5.21,5.21,0,0,1-1.93.2c-.95,0-1.89.18-2.83.28q-3.26.36-6.49.65c-4.36.37-8.72.69-13.08,1.06-1.48.13-3,.11-4.47.32-1.12.15-2.15.88-1.72,2.15s2.05,2.07,3.17,2.61a20.45,20.45,0,0,0,5.55,1.78c4.12.67,8.26.18,12.41.17,2,0,4.1.14,6.12-.05a3.83,3.83,0,0,1,.89-.08c.33.06-.16-.08-.16-.07,0,.18,0,.37,0,.56a10.4,10.4,0,0,1-.93,2.68c-3.12,7.56-6,15.63-5.72,23.92A25.56,25.56,0,0,0,611.87,615c1.23,2.47,3.09,5.08,5.63,6.33a6.24,6.24,0,0,0,3.85.56C622.77,621.66,622.17,619.49,620.75,619.72Z" transform="translate(-270.76 -325.55)"/><path class="cls-11" d="M583.9,602.93c.32-.25.4-.69.6-1,1.16-1.86,2.25-3.75,3.26-5.69.49-.94.94-1.9,1.5-2.81s1.19-1.87,1.75-2.82a50,50,0,0,1,4-5.86,14.9,14.9,0,0,1,3.29-3.2,8.87,8.87,0,0,1,5.87-1.35,4.44,4.44,0,0,1,2.1.81c2.12,1.59,1.89,4.8,1.28,7.07a11.83,11.83,0,0,1-5.86,7.33,8.94,8.94,0,0,1-4.08,1.32,3.45,3.45,0,0,1-3.25-1.27,2.52,2.52,0,0,1-.11-2.05c.11-.35.45-1.25.76-2.12s.55-1.51.63-1.83c-.45,0-2,2.17-2.25,2.67s-.64,1.16-1,1.74c-1,1.67-2,3.3-3,4.94a49.39,49.39,0,0,0-5.1,10.17,22.82,22.82,0,0,0-1,10.5,2.79,2.79,0,0,1-2.82,2.94,7.1,7.1,0,0,1-5.52-3.07,11.31,11.31,0,0,1-1.29-4.36,31.37,31.37,0,0,1-.42-3.72,29.64,29.64,0,0,1,.31-4.51,99.31,99.31,0,0,1,3.1-16c1-3.59,3-6.36,7.16-5.14,2,.58,2.72,2.51,2.46,4.55a21.72,21.72,0,0,1-1.49,4.23,22.88,22.88,0,0,0-1,4.08,17.73,17.73,0,0,0-.47,4.15.79.79,0,0,0,0,.22C583.64,603,583.78,603,583.9,602.93Z" transform="translate(-270.76 -325.55)"/><path class="cls-9" d="M584.7,603.72a13.58,13.58,0,0,0,1.27-2c.61-1,1.19-2,1.76-3,1-1.89,2-3.83,3.13-5.66,2.18-3.49,4.31-7.76,7.71-10.24a7.51,7.51,0,0,1,5.9-1.37c1.86.43,2.45,2.15,2.42,3.87a10.64,10.64,0,0,1-4.63,8.47c-1.64,1.15-4.07,2.48-6.14,1.7-1.19-.44-.84-1.48-.51-2.41s.84-2.16,1.15-3.26a1.14,1.14,0,0,0-1.38-1.39,4.93,4.93,0,0,0-2,1.91,32.57,32.57,0,0,0-2.1,3.44c-1.88,3.23-4,6.34-5.68,9.67a29.89,29.89,0,0,0-3.33,10.1,24.35,24.35,0,0,0,0,5.53c.22,2.13-1.35,2.53-3.11,2-3.73-1.17-4.18-5-4.53-8.33-.38-3.7.35-7.54.95-11.17a72.38,72.38,0,0,1,2.52-11.09c.75-2.29,2.17-4.38,4.87-3.91,4.48.78,1.34,6,.61,8.46-.38,1.31-2.82,10.14.66,9.06,1.38-.43.79-2.6-.6-2.17l-.19.06,1.1.29a8.82,8.82,0,0,1,.32-2.43c.19-1,.35-2.06.58-3.08.45-1.9,1.42-3.58,1.91-5.45.77-2.91-.32-6.07-3.44-6.83-7.5-1.84-8.86,7.92-9.89,13.06a86.81,86.81,0,0,0-1.72,12.22,28.26,28.26,0,0,0,.5,6,10.1,10.1,0,0,0,1.85,4.92c1.72,2.14,5.65,4,8.19,2.25a3.82,3.82,0,0,0,1.69-3.69,22.87,22.87,0,0,1,.16-6.76c.85-4.6,3.16-8.7,5.55-12.66,1.25-2,2.54-4.09,3.71-6.19a17.62,17.62,0,0,1,1-1.71c.19-.26.39-.52.6-.77s.24-.25.34-.38.41-.27.09-.17l-1.39-1.38c-.56,2-2.25,4.47-1.31,6.56s3.37,2.33,5.31,2c4.41-.67,8.36-4.35,9.81-8.48,1.28-3.66,1.17-9.1-3.51-10.09-5.42-1.14-9.27,2.8-12.16,6.77a68.23,68.23,0,0,0-5.11,8.11c-.72,1.36-1.41,2.74-2.17,4.08-.39.68-.78,1.35-1.18,2a14.89,14.89,0,0,1-1.16,2C582.13,603.2,583.72,604.79,584.7,603.72Z" transform="translate(-270.76 -325.55)"/><path class="cls-11" d="M540.78,617.06a31.64,31.64,0,0,1,2.43-11.46,20.93,20.93,0,0,1,2.3-4.24,52,52,0,0,1,4.53-5.81,19,19,0,0,1,7.41-4.92c2.59-.92,6.14-1.31,8.7-.1,2.13,1,2.61,3.62,2.74,5.73a34.37,34.37,0,0,1-7.1,23.67c-2.27,2.84-5.33,6-8.95,6.93-1,.26-1.94.35-2.91.53a14.85,14.85,0,0,1-2.38.35,7,7,0,0,1-2.44-.46,2.73,2.73,0,0,1-.53-.29l-1.06-.71a3.15,3.15,0,0,1-.64-.5,3.07,3.07,0,0,1-.4-.65l-.46-.89a9.28,9.28,0,0,1-.39-.85,9.62,9.62,0,0,1-.33-1.28c-.1-.54-.21-1.07-.29-1.61L541,620A21,21,0,0,1,540.78,617.06Zm23.86-15.75a30.9,30.9,0,0,0-.31-4.4,2.16,2.16,0,0,0-1.09-1.78c-3.17-1.85-4.82,2.76-5.68,4.94-.51,1.29-2.54,6.21-2.81,7.45-.47,2.2-.89,4.4-1.24,6.62s-.81,4-.29,6.18c.14.58.28,1.69.79,2.1s1.36.19,1.93.12c.92-.1,2.16-1.63,2.8-2.29a8,8,0,0,0,1.51-2.77c1-2.57,2.06-5.25,2.9-7.93a26.21,26.21,0,0,0,1.4-5.91C564.61,602.87,564.64,602.09,564.64,601.31Z" transform="translate(-270.76 -325.55)"/><path class="cls-9" d="M541.9,617.06A30.75,30.75,0,0,1,544,606.73a32.38,32.38,0,0,1,5.5-8.83,19.8,19.8,0,0,1,7.4-5.84c2.55-1.09,6.46-2,9-.41,2.17,1.33,2,4.94,2,7.12a35.08,35.08,0,0,1-1.32,9.5c-1.67,5.86-5.13,11.76-10,15.49a11.33,11.33,0,0,1-4.74,2.2c-1.76.34-3.76.94-5.53.48-3.94-1-4.28-6-4.29-9.38a1.13,1.13,0,0,0-2.25,0c0,3.19.3,8,3.13,10.08a7.89,7.89,0,0,0,4.77,1.73,19,19,0,0,0,2.89-.43,26.26,26.26,0,0,0,2.89-.55c3.46-1,6.26-3.59,8.52-6.28a34.61,34.61,0,0,0,5.62-9.25,36.11,36.11,0,0,0,2.5-10.89c.24-3.08.5-7-1.06-9.78s-5.48-3.3-8.49-2.91a18.64,18.64,0,0,0-9.55,4.43,29.25,29.25,0,0,0-4.31,4.78,34.21,34.21,0,0,0-3.78,5.83,32.32,32.32,0,0,0-3.13,13.24A1.13,1.13,0,0,0,541.9,617.06Z" transform="translate(-270.76 -325.55)"/><path class="cls-9" d="M565.77,601.31c0-2.23.29-5.83-2-7.16a3.71,3.71,0,0,0-4.74.75,14.38,14.38,0,0,0-2.52,4.67c-.63,1.6-1.29,3.2-1.91,4.81a35,35,0,0,0-1.64,6.14c-.53,2.84-1.4,6-1.07,8.88.25,2.11.75,4.54,3.36,4.35,2.11-.16,3.8-1.87,4.92-3.56a22.11,22.11,0,0,0,1.81-4.14c.63-1.61,1.23-3.22,1.78-4.86a31.29,31.29,0,0,0,2-9.88,1.13,1.13,0,0,0-2.25,0c0,4.7-1.74,9.14-3.42,13.49-.79,2-1.43,3.92-3,5.52a2.87,2.87,0,0,1-1.85,1.18c-.6,0-.66-.1-.81-.67s-.2-.85-.27-1.28c-.39-2.36.33-4.93.74-7.24a37.05,37.05,0,0,1,1.2-5.53c.83-2.46,1.85-4.86,2.83-7.27.47-1.13,1.18-3.2,2.48-3.62,2.45-.79,2,4.15,2.06,5.42A1.13,1.13,0,0,0,565.77,601.31Z" transform="translate(-270.76 -325.55)"/></g><g id="Capa_8" data-name="Capa 8"><path class="cls-9" d="M354.77,434.58A209.47,209.47,0,0,1,483.41,333a212.17,212.17,0,0,1,111.46,0A209.3,209.3,0,0,1,723.51,434.58a220.34,220.34,0,0,0-78.89-76.3,214.51,214.51,0,0,0-211,0A220.29,220.29,0,0,0,354.77,434.58Z" transform="translate(-270.76 -325.55)"/><path class="cls-9" d="M725.51,645.05A209.47,209.47,0,0,1,596.87,746.63a212.17,212.17,0,0,1-111.46,0A209.3,209.3,0,0,1,356.77,645.05a220.45,220.45,0,0,0,78.89,76.31,214.57,214.57,0,0,0,211,0A220.34,220.34,0,0,0,725.51,645.05Z" transform="translate(-270.76 -325.55)"/></g></svg>